<svg xmlns="http://www.w3.org/2000/svg" width="44" height="74" viewBox="0 0 44 74" fill="none">
  <path d="M29.3337 15.4167C29.3337 12.9635 28.561 10.6107 27.1858 8.87601C25.8105 7.1413 23.9452 6.16675 22.0003 6.16675C20.0554 6.16675 18.1901 7.1413 16.8149 8.87601C15.4396 10.6107 14.667 12.9635 14.667 15.4167C14.667 27.7501 29.3337 24.6667 29.3337 37.0001M29.3337 37.0001C29.3337 39.4533 28.561 41.8061 27.1858 43.5408C25.8105 45.2755 23.9452 46.2501 22.0003 46.2501C20.0554 46.2501 18.1901 45.2755 16.8149 43.5408C15.4396 41.8061 14.667 39.4533 14.667 37.0001M29.3337 37.0001C29.3337 34.5468 28.561 32.1941 27.1858 30.4593C25.8105 28.7246 23.9452 27.7501 22.0003 27.7501C20.0554 27.7501 18.1901 28.7246 16.8149 30.4593C15.4396 32.1941 14.667 34.5468 14.667 37.0001M14.667 37.0001C14.667 49.3334 29.3337 46.2501 29.3337 58.5834C29.3337 61.0367 28.561 63.3894 27.1858 65.1242C25.8105 66.8589 23.9452 67.8334 22.0003 67.8334C20.0554 67.8334 18.1901 66.8589 16.8149 65.1242C15.4396 63.3894 14.667 61.0367 14.667 58.5834" stroke="#8F99B1" stroke-width="5" stroke-linecap="round" stroke-linejoin="round"/>
</svg>